<svg width="444" height="100" viewBox="0 0 444 100" fill="none" xmlns="http://www.w3.org/2000/svg">
<rect x="0.5" y="0.5" width="99" height="99" stroke="black"/>
<line x1="-5.61152e-10" y1="49.5" x2="100" y2="49.5" stroke="black"/>
<line x1="50.5" x2="50.5" y2="100" stroke="black"/>
<line x1="25.5" y1="14" x2="25.5" y2="38" stroke="black"/>
<line x1="13" y1="25.5" x2="37" y2="25.5" stroke="black"/>
<line x1="34.3529" y1="67.3542" x2="17.3529" y2="84.2952" stroke="black"/>
<line x1="16.8836" y1="67.147" x2="33.8247" y2="84.1471" stroke="black"/>
<line x1="64" y1="25.5" x2="88" y2="25.5" stroke="black"/>
<line x1="64" y1="75.5" x2="88" y2="75.5" stroke="black"/>
<circle cx="76.5" cy="66.5" r="2.5" fill="black"/>
<circle cx="76.5" cy="85.5" r="2.5" fill="black"/>
<path d="M136.284 72V28.3636H162.449V33.0511H141.568V47.7955H160.489V52.483H141.568V72H136.284ZM170.817 72V39.2727H175.846V72H170.817ZM173.374 33.8182C172.394 33.8182 171.549 33.4844 170.838 32.8168C170.142 32.1491 169.794 31.3466 169.794 30.4091C169.794 29.4716 170.142 28.669 170.838 28.0014C171.549 27.3338 172.394 27 173.374 27C174.354 27 175.192 27.3338 175.888 28.0014C176.598 28.669 176.953 29.4716 176.953 30.4091C176.953 31.3466 176.598 32.1491 175.888 32.8168C175.192 33.4844 174.354 33.8182 173.374 33.8182ZM190.084 52.3125V72H185.055V39.2727H189.913V44.3864H190.339C191.107 42.7244 192.271 41.3892 193.834 40.3807C195.396 39.358 197.413 38.8466 199.885 38.8466C202.101 38.8466 204.04 39.3011 205.702 40.2102C207.364 41.1051 208.656 42.4688 209.58 44.3011C210.503 46.1193 210.964 48.4205 210.964 51.2045V72H205.936V51.5455C205.936 48.9744 205.268 46.9716 203.933 45.5369C202.598 44.0881 200.766 43.3636 198.436 43.3636C196.831 43.3636 195.396 43.7116 194.132 44.4077C192.882 45.1037 191.895 46.1193 191.17 47.4545C190.446 48.7898 190.084 50.4091 190.084 52.3125ZM234.386 39.2727V43.5341H217.426V39.2727H234.386ZM222.369 31.4318H227.397V62.625C227.397 64.0455 227.603 65.1108 228.015 65.821C228.441 66.517 228.981 66.9858 229.635 67.2273C230.302 67.4545 231.005 67.5682 231.744 67.5682C232.298 67.5682 232.752 67.5398 233.108 67.483C233.463 67.4119 233.747 67.3551 233.96 67.3125L234.983 71.8295C234.642 71.9574 234.166 72.0852 233.555 72.2131C232.944 72.3551 232.17 72.4261 231.233 72.4261C229.812 72.4261 228.42 72.1207 227.056 71.5099C225.707 70.8991 224.585 69.9688 223.69 68.7188C222.809 67.4688 222.369 65.892 222.369 63.9886V31.4318ZM255.32 72.6818C252.167 72.6818 249.446 71.9858 247.159 70.5938C244.887 69.1875 243.132 67.2273 241.897 64.7131C240.675 62.1847 240.064 59.2443 240.064 55.892C240.064 52.5398 240.675 49.5852 241.897 47.0284C243.132 44.4574 244.851 42.4545 247.053 41.0199C249.269 39.571 251.854 38.8466 254.809 38.8466C256.513 38.8466 258.196 39.1307 259.858 39.6989C261.52 40.267 263.033 41.1903 264.397 42.4688C265.76 43.733 266.847 45.4091 267.657 47.4972C268.466 49.5852 268.871 52.1562 268.871 55.2102V57.3409H243.644V52.9943H263.757C263.757 51.1477 263.388 49.5 262.65 48.0511C261.925 46.6023 260.888 45.4588 259.539 44.6207C258.203 43.7827 256.627 43.3636 254.809 43.3636C252.806 43.3636 251.073 43.8608 249.61 44.8551C248.161 45.8352 247.046 47.1136 246.265 48.6903C245.483 50.267 245.093 51.9574 245.093 53.7614V56.6591C245.093 59.1307 245.519 61.2259 246.371 62.9446C247.238 64.6491 248.438 65.9489 249.972 66.8438C251.506 67.7244 253.289 68.1648 255.32 68.1648C256.641 68.1648 257.834 67.9801 258.9 67.6108C259.979 67.2273 260.909 66.6591 261.691 65.9062C262.472 65.1392 263.076 64.1875 263.502 63.0511L268.36 64.4148C267.848 66.0625 266.989 67.5114 265.782 68.7614C264.574 69.9972 263.083 70.9631 261.307 71.6591C259.532 72.3409 257.536 72.6818 255.32 72.6818ZM281.549 28.3636V72H276.52V28.3636H281.549ZM295.787 28.3636V72H290.759V28.3636H295.787ZM304.997 72V39.2727H310.025V72H304.997ZM307.554 33.8182C306.574 33.8182 305.728 33.4844 305.018 32.8168C304.322 32.1491 303.974 31.3466 303.974 30.4091C303.974 29.4716 304.322 28.669 305.018 28.0014C305.728 27.3338 306.574 27 307.554 27C308.534 27 309.372 27.3338 310.068 28.0014C310.778 28.669 311.133 29.4716 311.133 30.4091C311.133 31.3466 310.778 32.1491 310.068 32.8168C309.372 33.4844 308.534 33.8182 307.554 33.8182ZM332.445 84.9545C330.016 84.9545 327.928 84.642 326.181 84.017C324.434 83.4062 322.978 82.5966 321.813 81.5881C320.663 80.5938 319.746 79.5284 319.065 78.392L323.07 75.5795C323.525 76.1761 324.1 76.858 324.796 77.625C325.492 78.4062 326.444 79.081 327.651 79.6491C328.873 80.2315 330.471 80.5227 332.445 80.5227C335.087 80.5227 337.268 79.8835 338.987 78.6051C340.705 77.3267 341.565 75.3239 341.565 72.5966V65.9489H341.138C340.769 66.5455 340.244 67.2841 339.562 68.1648C338.894 69.0312 337.928 69.8054 336.664 70.4872C335.414 71.1548 333.724 71.4886 331.593 71.4886C328.951 71.4886 326.579 70.8636 324.477 69.6136C322.388 68.3636 320.734 66.5455 319.512 64.1591C318.305 61.7727 317.701 58.875 317.701 55.4659C317.701 52.1136 318.29 49.1946 319.469 46.7088C320.648 44.2088 322.289 42.277 324.391 40.9134C326.494 39.5355 328.923 38.8466 331.678 38.8466C333.809 38.8466 335.499 39.2017 336.749 39.9119C338.013 40.608 338.979 41.4034 339.647 42.2983C340.329 43.179 340.854 43.9034 341.224 44.4716H341.735V39.2727H346.593V72.9375C346.593 75.75 345.954 78.0369 344.675 79.7983C343.411 81.5739 341.707 82.8736 339.562 83.6974C337.431 84.5355 335.059 84.9545 332.445 84.9545ZM332.275 66.9716C334.292 66.9716 335.996 66.5099 337.388 65.5866C338.781 64.6634 339.839 63.3352 340.563 61.6023C341.288 59.8693 341.65 57.7955 341.65 55.3807C341.65 53.0227 341.295 50.9418 340.585 49.1378C339.874 47.3338 338.823 45.9205 337.431 44.8977C336.039 43.875 334.32 43.3636 332.275 43.3636C330.144 43.3636 328.369 43.9034 326.948 44.983C325.542 46.0625 324.484 47.5114 323.773 49.3295C323.077 51.1477 322.729 53.1648 322.729 55.3807C322.729 57.6534 323.085 59.6634 323.795 61.4105C324.519 63.1435 325.585 64.5071 326.991 65.5014C328.411 66.4815 330.173 66.9716 332.275 66.9716ZM369.519 72.6818C366.366 72.6818 363.646 71.9858 361.359 70.5938C359.086 69.1875 357.332 67.2273 356.096 64.7131C354.874 62.1847 354.263 59.2443 354.263 55.892C354.263 52.5398 354.874 49.5852 356.096 47.0284C357.332 44.4574 359.05 42.4545 361.252 41.0199C363.468 39.571 366.053 38.8466 369.008 38.8466C370.712 38.8466 372.396 39.1307 374.058 39.6989C375.719 40.267 377.232 41.1903 378.596 42.4688C379.96 43.733 381.046 45.4091 381.856 47.4972C382.665 49.5852 383.07 52.1562 383.07 55.2102V57.3409H357.843V52.9943H377.957C377.957 51.1477 377.587 49.5 376.849 48.0511C376.124 46.6023 375.087 45.4588 373.738 44.6207C372.403 43.7827 370.826 43.3636 369.008 43.3636C367.005 43.3636 365.272 43.8608 363.809 44.8551C362.36 45.8352 361.245 47.1136 360.464 48.6903C359.683 50.267 359.292 51.9574 359.292 53.7614V56.6591C359.292 59.1307 359.718 61.2259 360.57 62.9446C361.437 64.6491 362.637 65.9489 364.171 66.8438C365.705 67.7244 367.488 68.1648 369.519 68.1648C370.84 68.1648 372.033 67.9801 373.099 67.6108C374.178 67.2273 375.109 66.6591 375.89 65.9062C376.671 65.1392 377.275 64.1875 377.701 63.0511L382.559 64.4148C382.048 66.0625 381.188 67.5114 379.981 68.7614C378.773 69.9972 377.282 70.9631 375.506 71.6591C373.731 72.3409 371.735 72.6818 369.519 72.6818ZM395.748 52.3125V72H390.719V39.2727H395.577V44.3864H396.004C396.771 42.7244 397.935 41.3892 399.498 40.3807C401.06 39.358 403.077 38.8466 405.549 38.8466C407.765 38.8466 409.704 39.3011 411.366 40.2102C413.028 41.1051 414.32 42.4688 415.244 44.3011C416.167 46.1193 416.629 48.4205 416.629 51.2045V72H411.6V51.5455C411.6 48.9744 410.933 46.9716 409.597 45.5369C408.262 44.0881 406.43 43.3636 404.1 43.3636C402.495 43.3636 401.06 43.7116 399.796 44.4077C398.546 45.1037 397.559 46.1193 396.835 47.4545C396.11 48.7898 395.748 50.4091 395.748 52.3125ZM440.05 39.2727V43.5341H423.09V39.2727H440.05ZM428.033 31.4318H433.061V62.625C433.061 64.0455 433.267 65.1108 433.679 65.821C434.105 66.517 434.645 66.9858 435.299 67.2273C435.966 67.4545 436.669 67.5682 437.408 67.5682C437.962 67.5682 438.417 67.5398 438.772 67.483C439.127 67.4119 439.411 67.3551 439.624 67.3125L440.647 71.8295C440.306 71.9574 439.83 72.0852 439.219 72.2131C438.608 72.3551 437.834 72.4261 436.897 72.4261C435.476 72.4261 434.084 72.1207 432.721 71.5099C431.371 70.8991 430.249 69.9688 429.354 68.7188C428.473 67.4688 428.033 65.892 428.033 63.9886V31.4318Z" fill="black"/>
</svg>
